<?xml version="1.0" encoding="UTF-8" standalone="no"?>
<!-- Created with Inkscape (http://www.inkscape.org/) -->

<svg
   width="210mm"
   height="297mm"
   viewBox="0 0 210 297"
   version="1.1"
   id="svg5"
   inkscape:version="1.1.2 (0a00cf5339, 2022-02-04)"
   sodipodi:docname="logo.svg"
   inkscape:export-filename="/home/franck/work/tools/nft/logo.png"
   inkscape:export-xdpi="806.33002"
   inkscape:export-ydpi="806.33002"
   xmlns:inkscape="http://www.inkscape.org/namespaces/inkscape"
   xmlns:sodipodi="http://sodipodi.sourceforge.net/DTD/sodipodi-0.dtd"
   xmlns="http://www.w3.org/2000/svg"
   xmlns:svg="http://www.w3.org/2000/svg">
  <sodipodi:namedview
     id="namedview7"
     pagecolor="#ffffff"
     bordercolor="#666666"
     borderopacity="1.0"
     inkscape:pageshadow="2"
     inkscape:pageopacity="0.0"
     inkscape:pagecheckerboard="0"
     inkscape:document-units="mm"
     showgrid="false"
     inkscape:zoom="8.7686002"
     inkscape:cx="169.24024"
     inkscape:cy="347.60394"
     inkscape:window-width="1920"
     inkscape:window-height="1080"
     inkscape:window-x="0"
     inkscape:window-y="0"
     inkscape:window-maximized="1"
     inkscape:current-layer="layer1" />
  <defs
     id="defs2" />
  <g
     inkscape:label="Layer 1"
     inkscape:groupmode="layer"
     id="layer1">
    <path
       id="path28837"
       style="font-size:10.5833px;line-height:1.25;font-family:Dyuthi;-inkscape-font-specification:Dyuthi;fill:#808080;stroke-width:0.264583"
       d="m 46.751668,87.337304 c -0.141465,0.0016 -0.289907,0.01537 -0.444934,0.04186 -0.241157,0.04134 -0.609785,0.20843 -1.105876,0.501261 v -0.01035 c 0,-0.117132 -0.04479,-0.223931 -0.134358,-0.320395 -0.08957,-0.09991 -0.201539,-0.14986 -0.335897,-0.14986 h -0.536919 c -0.120578,0 -0.230822,0.04651 -0.330729,0.139525 -0.09991,0.09302 -0.149862,0.206706 -0.149862,0.341064 v 3.674195 c 0,0.196371 0.07235,0.366903 0.217043,0.511598 0.09646,0.09302 0.266993,0.139525 0.511595,0.139525 h 0.02585 c 0.244599,0.0034 0.415134,-0.04306 0.511596,-0.139525 0.137803,-0.137803 0.206189,-0.308337 0.206189,-0.511598 v -2.196248 c -0.01722,-0.210151 0.148141,-0.420301 0.496094,-0.630452 0.347954,-0.210153 0.673516,-0.241157 0.976683,-0.09302 0.299723,0.148138 0.449585,0.468535 0.449585,0.961181 v 1.958536 c 0,0.04658 0.0043,0.09122 0.01188,0.13436 v 0.269233 c 0.0034,0.530547 -0.146415,0.866444 -0.449585,1.007692 -0.124021,0.06547 -0.258379,0.09818 -0.403074,0.09818 -0.144693,0 -0.268716,0.05513 -0.372071,0.165364 -0.09991,0.110242 -0.149862,0.242877 -0.149862,0.39791 0,0.241152 0.110244,0.415131 0.330729,0.52193 0.09301,0.0448 0.170532,0.07235 0.232545,0.08268 0.723469,0.144695 1.297077,-0.04996 1.720823,-0.583944 0.361733,-0.465084 0.542603,-1.06281 0.542603,-1.793171 V 91.67088 c 0.006,-0.0378 0.0093,-0.07634 0.0093,-0.116274 l -0.01035,-1.870686 h -5.29e-4 c -0.0034,-0.795814 -0.124027,-1.350479 -0.361736,-1.663981 -0.358291,-0.461856 -0.843748,-0.689295 -1.456759,-0.682646 z" />
    <path
       d="m 52.061694,86.123343 q 0,0 0,0.0155 -0.09818,0.418578 -0.43408,0.434081 -0.883664,0.04134 -0.888832,0.84749 v 0.423746 h 0.408242 q 0.211873,0 0.366902,0.160196 0.155029,0.155029 0.160196,0.372069 v 0.01034 q 0,0.227375 -0.149861,0.377236 -0.149861,0.155029 -0.377237,0.149862 h -0.408242 v 2.552807 q 0,0.279052 -0.19637,0.480589 -0.201537,0.201538 -0.480589,0.19637 h -0.02067 q -0.284219,0 -0.480589,-0.191202 -0.19637,-0.191202 -0.19637,-0.485757 v -2.552807 h -0.144693 q -0.222208,0 -0.372069,-0.160197 -0.155029,-0.149861 -0.155029,-0.366901 v -0.01034 q 0,-0.206705 0.160196,-0.372069 0.160197,-0.155029 0.366902,-0.160196 h 0.144693 v -0.687295 q 0,-0.547768 0.470254,-1.090369 0.578774,-0.661456 1.638138,-0.682127 0.253214,-0.0052 0.454751,0.217041 0.201538,0.227375 0.134358,0.52193 z"
       style="font-size:10.5833px;line-height:1.25;font-family:Dyuthi;-inkscape-font-specification:Dyuthi;fill:#808080;stroke-width:0.264583"
       id="path28839" />
    <path
       d="m 53.823708,89.880208 q 0,0.790647 0.434081,1.018022 0.335896,0.186035 0.160197,0.69763 -0.1757,0.527098 -0.558104,0.527098 -0.620115,0 -0.997352,-0.733803 -0.320393,-0.630451 -0.320393,-1.601965 v -1.266068 h -0.186035 q -0.211872,0 -0.351398,-0.134358 -0.144694,-0.129191 -0.139526,-0.346231 v -0.01034 q 0,-0.201537 0.139526,-0.346231 0.139526,-0.144693 0.351398,-0.144693 h 0.186035 v -0.527098 q 0,-0.361734 0.28422,-0.573607 0.155028,-0.124023 0.439248,-0.124023 h 0.02067 q 0.1757,0 0.356567,0.227376 0.180866,0.227375 0.180866,0.470254 v 0.527098 h 0.434081 q 0.191202,0 0.335896,0.149861 0.144693,0.149861 0.144693,0.341063 v 0.01034 q 0,0.222208 -0.139526,0.351398 -0.139525,0.129191 -0.341063,0.129191 h -0.434081 z"
       style="font-size:10.5833px;line-height:1.25;font-family:Dyuthi;-inkscape-font-specification:Dyuthi;fill:#808080;stroke-width:0.264583"
       id="path28841" />
  </g>
</svg>
