<?xml version="1.0" encoding="UTF-8" standalone="no"?>
<!-- Created with Inkscape (http://www.inkscape.org/) -->

<svg
   width="210mm"
   height="297mm"
   viewBox="0 0 210 297"
   version="1.1"
   id="svg5"
   inkscape:version="1.1.2 (0a00cf5339, 2022-02-04)"
   sodipodi:docname="logo.svg"
   inkscape:export-filename="/home/franck/work/tools/nft/logo.png"
   inkscape:export-xdpi="579.28003"
   inkscape:export-ydpi="579.28003"
   xmlns:inkscape="http://www.inkscape.org/namespaces/inkscape"
   xmlns:sodipodi="http://sodipodi.sourceforge.net/DTD/sodipodi-0.dtd"
   xmlns="http://www.w3.org/2000/svg"
   xmlns:svg="http://www.w3.org/2000/svg">
  <sodipodi:namedview
     id="namedview7"
     pagecolor="#ffffff"
     bordercolor="#666666"
     borderopacity="1.0"
     inkscape:pageshadow="2"
     inkscape:pageopacity="0.0"
     inkscape:pagecheckerboard="0"
     inkscape:document-units="mm"
     showgrid="false"
     inkscape:zoom="8.7686002"
     inkscape:cx="194.55785"
     inkscape:cy="347.60394"
     inkscape:window-width="1920"
     inkscape:window-height="1080"
     inkscape:window-x="0"
     inkscape:window-y="0"
     inkscape:window-maximized="1"
     inkscape:current-layer="layer1" />
  <defs
     id="defs2" />
  <g
     inkscape:label="Layer 1"
     inkscape:groupmode="layer"
     id="layer1">
    <g
       id="g43052"
       style="fill:#808080"
       inkscape:export-filename="/home/franck/work/tools/nft/logo.png"
       inkscape:export-xdpi="791.9895"
       inkscape:export-ydpi="791.9895">
      <path
         id="path28837"
         style="font-size:10.5833px;line-height:1.25;font-family:Dyuthi;-inkscape-font-specification:Dyuthi;stroke-width:0.999999;fill:#808080"
         d="M 176.69922 330.09375 C 176.16455 330.09955 175.60351 330.15186 175.01758 330.25195 C 174.10612 330.4082 172.71288 331.03972 170.83789 332.14648 L 170.83789 332.10742 C 170.83789 331.66472 170.66862 331.26107 170.33008 330.89648 C 169.99154 330.51888 169.56836 330.33008 169.06055 330.33008 L 167.03125 330.33008 C 166.57552 330.33008 166.15885 330.50586 165.78125 330.85742 C 165.40364 331.20898 165.21484 331.63867 165.21484 332.14648 L 165.21484 346.0332 C 165.21484 346.77539 165.48828 347.41992 166.03516 347.9668 C 166.39974 348.31836 167.04427 348.49414 167.96875 348.49414 L 168.06641 348.49414 C 168.99088 348.50716 169.63542 348.33138 170 347.9668 C 170.52083 347.44597 170.7793 346.80143 170.7793 346.0332 L 170.7793 337.73242 C 170.71419 336.93815 171.3392 336.14388 172.6543 335.34961 C 173.9694 334.55533 175.19987 334.43815 176.3457 334.99805 C 177.47851 335.55794 178.04492 336.76889 178.04492 338.63086 L 178.04492 346.0332 C 178.04492 346.20926 178.06112 346.37796 178.08984 346.54102 L 178.08984 347.55859 C 178.10269 349.56381 177.53646 350.83334 176.39062 351.36719 C 175.92188 351.61463 175.41407 351.73828 174.86719 351.73828 C 174.32032 351.73828 173.85157 351.94665 173.46094 352.36328 C 173.08332 352.77994 172.89453 353.28124 172.89453 353.86719 C 172.89453 354.77863 173.3112 355.43619 174.14453 355.83984 C 174.49607 356.00917 174.78906 356.1133 175.02344 356.15234 C 177.75781 356.69922 179.92578 355.96352 181.52734 353.94531 C 182.89452 352.18751 183.57812 349.92839 183.57812 347.16797 L 183.57812 346.47266 C 183.60074 346.32981 183.61328 346.18413 183.61328 346.0332 L 183.57422 338.96289 L 183.57227 338.96289 C 183.55924 335.95509 183.10351 333.85872 182.20508 332.67383 C 180.85091 330.92823 179.01611 330.06862 176.69922 330.09375 z "
         transform="scale(0.26458333)" />
      <path
         d="m 52.061694,86.123343 q 0,0 0,0.0155 -0.09818,0.418578 -0.43408,0.434081 -0.883664,0.04134 -0.888832,0.84749 v 0.423746 h 0.408242 q 0.211873,0 0.366902,0.160196 0.155029,0.155029 0.160196,0.372069 v 0.01034 q 0,0.227375 -0.149861,0.377236 -0.149861,0.155029 -0.377237,0.149862 h -0.408242 v 2.552807 q 0,0.279052 -0.19637,0.480589 -0.201537,0.201538 -0.480589,0.19637 h -0.02067 q -0.284219,0 -0.480589,-0.191202 -0.19637,-0.191202 -0.19637,-0.485757 v -2.552807 h -0.144693 q -0.222208,0 -0.372069,-0.160197 -0.155029,-0.149861 -0.155029,-0.366901 v -0.01034 q 0,-0.206705 0.160196,-0.372069 0.160197,-0.155029 0.366902,-0.160196 h 0.144693 v -0.687295 q 0,-0.547768 0.470254,-1.090369 0.578774,-0.661456 1.638138,-0.682127 0.253214,-0.0052 0.454751,0.217041 0.201538,0.227375 0.134358,0.52193 z"
         style="font-size:10.5833px;line-height:1.25;font-family:Dyuthi;-inkscape-font-specification:Dyuthi;stroke-width:0.264583;fill:#808080"
         id="path28839" />
      <path
         d="m 54.023323,89.880208 q 0,0.790647 0.434081,1.018022 0.335896,0.186035 0.160197,0.69763 -0.1757,0.527098 -0.558104,0.527098 -0.620115,0 -0.997352,-0.733803 -0.320393,-0.630451 -0.320393,-1.601965 v -1.266068 h -0.186035 q -0.211872,0 -0.351398,-0.134358 -0.144694,-0.129191 -0.139526,-0.346231 v -0.01034 q 0,-0.201537 0.139526,-0.346231 0.139526,-0.144693 0.351398,-0.144693 h 0.186035 v -0.527098 q 0,-0.361734 0.28422,-0.573607 0.155028,-0.124023 0.439248,-0.124023 h 0.02067 q 0.1757,0 0.356567,0.227376 0.180866,0.227375 0.180866,0.470254 v 0.527098 h 0.434081 q 0.191202,0 0.335896,0.149861 0.144693,0.149861 0.144693,0.341063 v 0.01034 q 0,0.222208 -0.139526,0.351398 -0.139525,0.129191 -0.341063,0.129191 h -0.434081 z"
         style="font-size:10.5833px;line-height:1.25;font-family:Dyuthi;-inkscape-font-specification:Dyuthi;stroke-width:0.264583;fill:#808080"
         id="path28841" />
    </g>
  </g>
</svg>
